<svg xmlns="http://www.w3.org/2000/svg" width="512" height="512" viewBox="0 0 512 512">
  <defs>
    <linearGradient id="gradient" x1="0%" y1="0%" x2="100%" y2="100%">
      <stop offset="0%" style="stop-color:#6366F1" />
      <stop offset="100%" style="stop-color:#A855F7" />
    </linearGradient>
  </defs>
  <rect width="512" height="512" rx="128" fill="url(#gradient)" />
  <path
    d="M256 48c-8.8 0-16 7.2-16 16v96c0 8.8 7.2 16 16 16s16-7.2 16-16V64c0-8.8-7.2-16-16-16zm0 144c-8.8 0-16 7.2-16 16v96c0 8.8 7.2 16 16 16s16-7.2 16-16v-96c0-8.8-7.2-16-16-16zm128-80c-8.8 0-16 7.2-16 16v96c0 8.8 7.2 16 16 16s16-7.2 16-16v-96c0-8.8-7.2-16-16-16zm0 144c-8.8 0-16 7.2-16 16v96c0 8.8 7.2 16 16 16s16-7.2 16-16v-96c0-8.8-7.2-16-16-16zM128 112c-8.8 0-16 7.2-16 16v96c0 8.8 7.2 16 16 16s16-7.2 16-16v-96c0-8.8-7.2-16-16-16zm0 144c-8.8 0-16 7.2-16 16v96c0 8.8 7.2 16 16 16s16-7.2 16-16v-96c0-8.8-7.2-16-16-16z"
    fill="white"
    opacity="0.9"
  />
</svg> 